<?xml version="1.0" encoding="utf-8"?>
<!-- Generator: Adobe Illustrator 16.0.0, SVG Export Plug-In . SVG Version: 6.00 Build 0)  -->
<!DOCTYPE svg PUBLIC "-//W3C//DTD SVG 1.1//EN" "http://www.w3.org/Graphics/SVG/1.1/DTD/svg11.dtd">
<svg version="1.1" id="Layer_1" xmlns="http://www.w3.org/2000/svg" xmlns:xlink="http://www.w3.org/1999/xlink" x="0px" y="0px"
	 width="1600px" height="1064.5px" viewBox="0 0 1600 1064.5" enable-background="new 0 0 1600 1064.5" xml:space="preserve">
<g>
	<defs>
		<rect id="SVGID_1_" x="-31.368" y="0" width="1924.404" height="1064.5"/>
	</defs>
	<clipPath id="SVGID_2_">
		<use xlink:href="#SVGID_1_"  overflow="visible"/>
	</clipPath>
	<g transform="translate(-78 -108)" clip-path="url(#SVGID_2_)">
		<g>
			<path opacity="0.1" fill="#57729E" enable-background="new    " d="M1418.755-860.681L2861.073,1402.24
				c0,0-123.679,489.51-477.976,283.979c-354.292-205.528-94.486-313.229-441.815-659.078
				c-347.335-345.849-736.412-313.496-847.937-784.159c-87.531-369.397,18.435-329.159-226.277-719.52
				C622.36-866.898,1418.755-860.681,1418.755-860.681z"/>
			<path opacity="0.1" fill="#57729E" enable-background="new    " d="M24.569-336.324l2938.705,767.497
				c0,0,325.701,420.552-100.087,481.298c-425.79,60.742-331.945-167.671-871.37-210.834
				c-539.426-43.164-788.916,207.161-1266.043-62.57C351.304,427.368,460.707,394.092-43.314,259.304
				C-547.337,124.517,24.569-336.324,24.569-336.324z"/>
			<g>
				<path id="b_1_" fill="#4E668D" stroke="#4E668D" stroke-width="6" stroke-miterlimit="10" d="M440.96-279.195l2630.464,84.14
					c0,0,432.935,449.297-24.352,526.284c-457.287,76.986-594.638-77.666-897.454-47.731
					c-298.059,29.467-462.36,193.682-940.525,153.001c-517.184-44-586.943,174-752.924,158
					C6.698,551.172,440.96-279.195,440.96-279.195z"/>
			</g>
		</g>
	</g>
</g>
</svg>
